<?xml version="1.0" encoding="iso-8859-1"?>
<!-- Generator: Adobe Illustrator 19.0.0, SVG Export Plug-In . SVG Version: 6.00 Build 0)  -->
<svg version="1.1" id="Capa_1" xmlns="http://www.w3.org/2000/svg" xmlns:xlink="http://www.w3.org/1999/xlink" x="0px" y="0px"
	 viewBox="0 0 512 512" style="enable-background:new 0 0 512 512;" xml:space="preserve">
<path style="fill:#303C42;" d="M487.896,3.5C485.875,1.271,483.01,0,480,0H32c-3.01,0-5.875,1.271-7.896,3.5
	c-2.031,2.229-3.01,5.208-2.719,8.198l42.667,437.333c0.417,4.333,3.427,7.979,7.604,9.198l181.333,53.333
	c0.979,0.292,2,0.438,3.01,0.438c1.01,0,2.031-0.146,3.01-0.438l181.333-53.333c4.177-1.219,7.188-4.865,7.604-9.198l42.667-437.333
	C490.906,8.708,489.927,5.729,487.896,3.5z"/>
<polygon style="fill:#FFA726;" points="427.417,439.802 256,490.219 84.583,439.802 43.76,21.333 468.24,21.333 "/>
<polygon style="opacity:0.2;fill:#FFFFFF;enable-background:new    ;" points="64,21.333 43.76,21.333 84.583,439.802 256,490.219 
	100.93,439.802 "/>
<polygon style="opacity:0.1;enable-background:new    ;" points="448,21.333 411.07,439.802 256,490.219 427.417,439.802 
	468.24,21.333 "/>
<path style="fill:#303C42;" d="M142.708,277.333h150.521l-4.646,47.646L256,334.563l-32.583-9.583l-2.667-27.344
	c-0.531-5.469-5.125-9.635-10.615-9.635h-64.302c-3.01,0-5.875,1.271-7.896,3.5c-2.031,2.229-3.01,5.208-2.719,8.198l8.167,83.719
	c0.417,4.333,3.427,7.979,7.604,9.198l102,30c0.979,0.292,2,0.438,3.01,0.438c1.01,0,2.031-0.146,3.01-0.438l102-30
	c4.177-1.219,7.188-4.865,7.604-9.198l16.49-169.052c0.292-2.99-0.688-5.969-2.719-8.198c-2.021-2.229-4.885-3.5-7.896-3.5h-163
	l-3.125-32h171.333c5.49,0,10.083-4.167,10.615-9.635l6.24-64c0.292-2.99-0.698-5.969-2.719-8.198s-4.885-3.5-7.896-3.5H126.063
	c-3.01,0-5.875,1.271-7.896,3.5c-2.031,2.229-3.01,5.208-2.719,8.198l16.646,170.667
	C132.625,273.167,137.219,277.333,142.708,277.333z"/>
<path style="fill:#FFFFFF;" d="M374.177,106.667l-4.156,42.667H196.604c-3.01,0-5.875,1.271-7.896,3.5
	c-2.031,2.229-3.01,5.208-2.719,8.208l5.208,53.333c0.531,5.458,5.125,9.625,10.615,9.625h160.917l-14.646,150.188L256,401.271
	l-92.083-27.083l-6.323-64.854h42.865l2.427,24.875c0.417,4.333,3.427,7.979,7.604,9.198l42.5,12.5c1.958,0.583,4.063,0.583,6.021,0
	l42.5-12.5c4.177-1.219,7.188-4.865,7.604-9.198l6.49-66.51c0.292-2.99-0.688-5.969-2.719-8.198c-2.021-2.229-4.885-3.5-7.896-3.5
	H152.385l-14.563-149.333H374.177z"/>
<linearGradient id="SVGID_1_" gradientUnits="userSpaceOnUse" x1="-39.8903" y1="628.2813" x2="-39.8783" y2="628.2692" gradientTransform="matrix(21.3333 0 0 -21.3333 996.3334 13791.667)">
	<stop  offset="0" style="stop-color:#000000;stop-opacity:0.1"/>
	<stop  offset="1" style="stop-color:#000000;stop-opacity:0"/>
</linearGradient>
<path style="fill:url(#SVGID_1_);" d="M145.415,388.311l-0.121,0.073l0.259,0.259C145.483,388.547,145.484,388.41,145.415,388.311z"
	/>
<linearGradient id="SVGID_2_" gradientUnits="userSpaceOnUse" x1="-38.4373" y1="635.353" x2="-33.7556" y2="630.6712" gradientTransform="matrix(21.3333 0 0 -21.3333 996.3334 13791.667)">
	<stop  offset="0" style="stop-color:#000000;stop-opacity:0.1"/>
	<stop  offset="1" style="stop-color:#000000;stop-opacity:0"/>
</linearGradient>
<path style="fill:url(#SVGID_2_);" d="M220.75,297.635l2.667,27.344L256,334.563l32.583-9.583l4.646-47.646H142.708
	c-1.786,0-3.397-0.565-4.885-1.349l0,0L149.839,288h60.297C215.625,288,220.219,292.167,220.75,297.635z"/>
<linearGradient id="SVGID_3_" gradientUnits="userSpaceOnUse" x1="-37.0939" y1="638.3265" x2="-25.6524" y2="626.8841" gradientTransform="matrix(21.3333 0 0 -21.3333 996.3334 13791.667)">
	<stop  offset="0" style="stop-color:#000000;stop-opacity:0.1"/>
	<stop  offset="1" style="stop-color:#000000;stop-opacity:0"/>
</linearGradient>
<path style="fill:url(#SVGID_3_);" d="M393.833,88.833c2.021,2.229,3.01,5.208,2.719,8.198l-6.24,64
	c-0.531,5.469-5.125,9.635-10.615,9.635H208.365l3.125,32h163c3.01,0,5.875,1.271,7.896,3.5c2.031,2.229,3.01,5.208,2.719,8.198
	l-16.49,169.052c-0.417,4.333-3.427,7.979-7.604,9.198l-102,30c-0.979,0.292-2,0.438-3.01,0.438c-1.01,0-2.031-0.146-3.01-0.438
	l-102-30c-1.717-0.501-3.063-1.621-4.286-2.822l96.729,96.729L256,490.219l171.417-50.417l28.21-289.176L393.833,88.833z"/>
<linearGradient id="SVGID_4_" gradientUnits="userSpaceOnUse" x1="-47.5283" y1="642.1814" x2="-23.1635" y2="630.8195" gradientTransform="matrix(21.3333 0 0 -21.3333 996.3334 13791.667)">
	<stop  offset="0" style="stop-color:#FFFFFF;stop-opacity:0.2"/>
	<stop  offset="1" style="stop-color:#FFFFFF;stop-opacity:0"/>
</linearGradient>
<path style="fill:url(#SVGID_4_);" d="M487.896,3.5C485.875,1.271,483.01,0,480,0H32c-3.01,0-5.875,1.271-7.896,3.5
	c-2.031,2.229-3.01,5.208-2.719,8.198l42.667,437.333c0.417,4.333,3.427,7.979,7.604,9.198l181.333,53.333
	c0.979,0.292,2,0.438,3.01,0.438c1.01,0,2.031-0.146,3.01-0.438l181.333-53.333c4.177-1.219,7.188-4.865,7.604-9.198l42.667-437.333
	C490.906,8.708,489.927,5.729,487.896,3.5z"/>
<g>
</g>
<g>
</g>
<g>
</g>
<g>
</g>
<g>
</g>
<g>
</g>
<g>
</g>
<g>
</g>
<g>
</g>
<g>
</g>
<g>
</g>
<g>
</g>
<g>
</g>
<g>
</g>
<g>
</g>
</svg>
