<svg xmlns="http://www.w3.org/2000/svg" viewBox="0 0 512.006 512.006"><path d="M483.378 64.558l-192-64c-2.146-.719-4.458-.75-6.583-.052l-202.667 64a10.661 10.661 0 0 0-7.344 8.615L43.409 286.454a10.69 10.69 0 0 0 2.479 8.521 10.645 10.645 0 0 0 8.073 3.698h317.625l-11.99 81.552-134.969 42.615-109.646-36.542 4.813-32.74a10.69 10.69 0 0 0-2.479-8.521 10.645 10.645 0 0 0-8.073-3.698H44.555a10.662 10.662 0 0 0-10.552 9.115l-12.552 85.333a10.664 10.664 0 0 0 7.177 11.667l192 64c1.094.365 2.24.552 3.375.552 1.083 0 2.167-.167 3.208-.5l202.667-64a10.661 10.661 0 0 0 7.344-8.615l31.375-213.333a10.69 10.69 0 0 0-2.479-8.521 10.645 10.645 0 0 0-8.073-3.698H140.42l11.99-81.552 134.969-42.615 109.646 36.542-4.813 32.74a10.69 10.69 0 0 0 2.479 8.521 10.645 10.645 0 0 0 8.073 3.698h64.688c5.292 0 9.781-3.875 10.552-9.115l12.552-85.333a10.665 10.665 0 0 0-7.178-11.667z" fill="#303c42"/><path d="M458.242 149.339h-43.125l4.313-29.365a10.664 10.664 0 0 0-7.177-11.667L290.847 67.839a10.462 10.462 0 0 0-6.583-.052l-144.646 45.677a10.661 10.661 0 0 0-7.344 8.615l-14.76 100.375a10.69 10.69 0 0 0 2.479 8.521 10.645 10.645 0 0 0 8.073 3.698H445.69l-28.604 194.51-192.99 60.938-180.24-60.073 9.906-67.375h43.125l-4.313 29.365a10.664 10.664 0 0 0 7.177 11.667l121.406 40.469c2.125.698 4.438.729 6.583.052l144.646-45.677a10.661 10.661 0 0 0 7.344-8.615l14.76-100.375a10.69 10.69 0 0 0-2.479-8.521 10.645 10.645 0 0 0-8.073-3.698H66.315L94.92 82.829l192.99-60.938 180.24 60.073-9.908 67.375z" fill="#ffca28"/><path opacity=".2" fill="#fff" d="M105.268 93.178l192.99-60.938 168.923 56.301.968-6.577-180.24-60.073L94.92 82.829l-28.605 194.51h11.871z"/><path opacity=".1" d="M406.737 418.834l-192.989 60.937-168.924-56.3-.967 6.576 180.24 60.073 192.989-60.937 28.604-194.511h-11.871z"/><linearGradient id="a" gradientUnits="userSpaceOnUse" x1="-44.98" y1="639.281" x2="-24.42" y2="629.694" gradientTransform="matrix(21.3333 0 0 -21.3333 996.276 13791.73)"><stop offset="0" stop-color="#fff" stop-opacity=".2"/><stop offset="1" stop-color="#fff" stop-opacity="0"/></linearGradient><path d="M483.378 64.558l-192-64c-2.146-.719-4.458-.75-6.583-.052l-202.667 64a10.661 10.661 0 0 0-7.344 8.615L43.409 286.454a10.69 10.69 0 0 0 2.479 8.521 10.645 10.645 0 0 0 8.073 3.698h317.625l-11.99 81.552-134.969 42.615-109.646-36.542 4.813-32.74a10.69 10.69 0 0 0-2.479-8.521 10.645 10.645 0 0 0-8.073-3.698H44.555a10.662 10.662 0 0 0-10.552 9.115l-12.552 85.333a10.664 10.664 0 0 0 7.177 11.667l192 64c1.094.365 2.24.552 3.375.552 1.083 0 2.167-.167 3.208-.5l202.667-64a10.661 10.661 0 0 0 7.344-8.615l31.375-213.333a10.69 10.69 0 0 0-2.479-8.521 10.645 10.645 0 0 0-8.073-3.698H140.42l11.99-81.552 134.969-42.615 109.646 36.542-4.813 32.74a10.69 10.69 0 0 0 2.479 8.521 10.645 10.645 0 0 0 8.073 3.698h64.688c5.292 0 9.781-3.875 10.552-9.115l12.552-85.333a10.665 10.665 0 0 0-7.178-11.667z" fill="url(#a)"/></svg>