<?xml version="1.0" encoding="iso-8859-1"?>
<!-- Generator: Adobe Illustrator 19.0.0, SVG Export Plug-In . SVG Version: 6.00 Build 0)  -->
<svg version="1.1" id="Capa_1" xmlns="http://www.w3.org/2000/svg" xmlns:xlink="http://www.w3.org/1999/xlink" x="0px" y="0px"
	 viewBox="0 0 512.006 512.006" style="enable-background:new 0 0 512.006 512.006;" xml:space="preserve">
<path style="fill:#303C42;" d="M483.378,64.558l-192-64c-2.146-0.719-4.458-0.75-6.583-0.052l-202.667,64
	c-3.896,1.229-6.75,4.573-7.344,8.615L43.409,286.454c-0.448,3.063,0.458,6.177,2.479,8.521c2.031,2.354,4.969,3.698,8.073,3.698
	h317.625l-11.99,81.552l-134.969,42.615l-109.646-36.542l4.813-32.74c0.448-3.063-0.458-6.177-2.479-8.521
	c-2.031-2.354-4.969-3.698-8.073-3.698H44.555c-5.292,0-9.781,3.875-10.552,9.115l-12.552,85.333
	c-0.75,5.115,2.271,10.031,7.177,11.667l192,64c1.094,0.365,2.24,0.552,3.375,0.552c1.083,0,2.167-0.167,3.208-0.5l202.667-64
	c3.896-1.229,6.75-4.573,7.344-8.615l31.375-213.333c0.448-3.063-0.458-6.177-2.479-8.521c-2.031-2.354-4.969-3.698-8.073-3.698
	H140.42l11.99-81.552l134.969-42.615l109.646,36.542l-4.813,32.74c-0.448,3.063,0.458,6.177,2.479,8.521
	c2.031,2.354,4.969,3.698,8.073,3.698h64.688c5.292,0,9.781-3.875,10.552-9.115l12.552-85.333
	C491.305,71.11,488.284,66.193,483.378,64.558z"/>
<path style="fill:#FFCA28;" d="M458.242,149.339h-43.125l4.313-29.365c0.75-5.115-2.271-10.031-7.177-11.667L290.847,67.839
	c-2.146-0.729-4.469-0.74-6.583-0.052l-144.646,45.677c-3.896,1.229-6.75,4.573-7.344,8.615l-14.76,100.375
	c-0.448,3.063,0.458,6.177,2.479,8.521c2.031,2.354,4.969,3.698,8.073,3.698H445.69l-28.604,194.51l-192.99,60.938l-180.24-60.073
	l9.906-67.375h43.125l-4.313,29.365c-0.75,5.115,2.271,10.031,7.177,11.667l121.406,40.469c2.125,0.698,4.438,0.729,6.583,0.052
	l144.646-45.677c3.896-1.229,6.75-4.573,7.344-8.615l14.76-100.375c0.448-3.063-0.458-6.177-2.479-8.521
	c-2.031-2.354-4.969-3.698-8.073-3.698H66.315L94.92,82.829l192.99-60.938l180.24,60.073L458.242,149.339z"/>
<polygon style="opacity:0.2;fill:#FFFFFF;enable-background:new    ;" points="105.268,93.178 298.258,32.24 467.181,88.541 
	468.149,81.964 287.909,21.891 94.92,82.829 66.315,277.339 78.186,277.339 "/>
<polygon style="opacity:0.1;enable-background:new    ;" points="406.737,418.834 213.748,479.771 44.824,423.471 43.857,430.047 
	224.097,490.12 417.086,429.183 445.69,234.672 433.819,234.672 "/>
<linearGradient id="SVGID_1_" gradientUnits="userSpaceOnUse" x1="-44.9802" y1="639.2806" x2="-24.4203" y2="629.6936" gradientTransform="matrix(21.3333 0 0 -21.3333 996.2756 13791.7305)">
	<stop  offset="0" style="stop-color:#FFFFFF;stop-opacity:0.2"/>
	<stop  offset="1" style="stop-color:#FFFFFF;stop-opacity:0"/>
</linearGradient>
<path style="fill:url(#SVGID_1_);" d="M483.378,64.558l-192-64c-2.146-0.719-4.458-0.75-6.583-0.052l-202.667,64
	c-3.896,1.229-6.75,4.573-7.344,8.615L43.409,286.454c-0.448,3.063,0.458,6.177,2.479,8.521c2.031,2.354,4.969,3.698,8.073,3.698
	h317.625l-11.99,81.552l-134.969,42.615l-109.646-36.542l4.813-32.74c0.448-3.063-0.458-6.177-2.479-8.521
	c-2.031-2.354-4.969-3.698-8.073-3.698H44.555c-5.292,0-9.781,3.875-10.552,9.115l-12.552,85.333
	c-0.75,5.115,2.271,10.031,7.177,11.667l192,64c1.094,0.365,2.24,0.552,3.375,0.552c1.083,0,2.167-0.167,3.208-0.5l202.667-64
	c3.896-1.229,6.75-4.573,7.344-8.615l31.375-213.333c0.448-3.063-0.458-6.177-2.479-8.521c-2.031-2.354-4.969-3.698-8.073-3.698
	H140.42l11.99-81.552l134.969-42.615l109.646,36.542l-4.813,32.74c-0.448,3.063,0.458,6.177,2.479,8.521
	c2.031,2.354,4.969,3.698,8.073,3.698h64.688c5.292,0,9.781-3.875,10.552-9.115l12.552-85.333
	C491.305,71.11,488.284,66.193,483.378,64.558z"/>
<g>
</g>
<g>
</g>
<g>
</g>
<g>
</g>
<g>
</g>
<g>
</g>
<g>
</g>
<g>
</g>
<g>
</g>
<g>
</g>
<g>
</g>
<g>
</g>
<g>
</g>
<g>
</g>
<g>
</g>
</svg>
