<?xml version="1.0" encoding="iso-8859-1"?>
<!-- Generator: Adobe Illustrator 19.0.0, SVG Export Plug-In . SVG Version: 6.00 Build 0)  -->
<svg version="1.1" id="Capa_1" xmlns="http://www.w3.org/2000/svg" xmlns:xlink="http://www.w3.org/1999/xlink" x="0px" y="0px"
	 viewBox="0 0 512 512" style="enable-background:new 0 0 512 512;" xml:space="preserve">
<path style="fill:#303C42;" d="M384,0H128c-23.531,0-42.667,19.135-42.667,42.667v426.667C85.333,492.865,104.469,512,128,512h256
	c23.531,0,42.667-19.135,42.667-42.667V42.667C426.667,19.135,407.531,0,384,0z"/>
<g>
	<path id="SVGCleanerId_0" style="fill:#5C6671;" d="M128,21.333h256c11.76,0,21.333,9.573,21.333,21.333v362.667H106.667V42.667
		C106.667,30.906,116.24,21.333,128,21.333z"/>
</g>
<g>
	
		<linearGradient id="SVGCleanerId_0_3_" gradientUnits="userSpaceOnUse" x1="-43.6714" y1="640.4838" x2="-25.5757" y2="632.0478" gradientTransform="matrix(21.3333 0 0 -21.3333 996.3334 13791.667)">
		<stop  offset="0" style="stop-color:#FFFFFF;stop-opacity:0.2"/>
		<stop  offset="1" style="stop-color:#FFFFFF;stop-opacity:0"/>
	</linearGradient>
	<path id="SVGCleanerId_0_1_" style="fill:url(#SVGCleanerId_0_3_);" d="M128,21.333h256c11.76,0,21.333,9.573,21.333,21.333
		v362.667H106.667V42.667C106.667,30.906,116.24,21.333,128,21.333z"/>
</g>
<g>
	
		<linearGradient id="SVGCleanerId_0_4_" gradientUnits="userSpaceOnUse" x1="-42.5557" y1="644.0456" x2="-26.8507" y2="628.3366" gradientTransform="matrix(21.3333 0 0 -21.3333 996.3334 13791.667)">
		<stop  offset="0" style="stop-color:#FFFFFF;stop-opacity:0.2"/>
		<stop  offset="1" style="stop-color:#FFFFFF;stop-opacity:0"/>
	</linearGradient>
	<path id="SVGCleanerId_0_2_" style="fill:url(#SVGCleanerId_0_4_);" d="M128,21.333h256c11.76,0,21.333,9.573,21.333,21.333
		v362.667H106.667V42.667C106.667,30.906,116.24,21.333,128,21.333z"/>
</g>
<path style="fill:#F2F2F2;" d="M288,448h-64c-5.896,0-10.667,4.771-10.667,10.667c0,5.896,4.771,10.667,10.667,10.667h64
	c5.896,0,10.667-4.771,10.667-10.667C298.667,452.771,293.896,448,288,448z"/>
<g>
	<path style="fill:#303C42;" d="M195.833,296.198c2,1.656,4.417,2.469,6.823,2.469c3.063,0,6.094-1.302,8.208-3.833
		c3.771-4.531,3.156-11.26-1.365-15.031l-54.167-45.135l54.167-45.135c4.521-3.771,5.135-10.5,1.365-15.031
		c-3.771-4.51-10.49-5.125-15.031-1.365l-64,53.333C129.406,228.5,128,231.5,128,234.667s1.406,6.167,3.833,8.198L195.833,296.198z"
		/>
	<path style="fill:#303C42;" d="M301.135,294.833c2.115,2.531,5.146,3.833,8.208,3.833c2.406,0,4.823-0.813,6.823-2.469l64-53.333
		c2.427-2.031,3.833-5.031,3.833-8.198s-1.406-6.167-3.833-8.198l-64-53.333c-4.552-3.76-11.25-3.146-15.031,1.365
		c-3.771,4.531-3.156,11.26,1.365,15.031l54.167,45.135L302.5,279.802C297.979,283.573,297.365,290.302,301.135,294.833z"/>
	<path style="fill:#303C42;" d="M219.802,319.135c1.365,0.594,2.792,0.865,4.198,0.865c4.135,0,8.073-2.417,9.802-6.469l64-149.333
		c2.323-5.406-0.188-11.677-5.604-14c-5.365-2.333-11.677,0.177-14,5.604l-64,149.333
		C211.875,310.542,214.385,316.813,219.802,319.135z"/>
	<path style="fill:#303C42;" d="M245.333,64h21.333c5.896,0,10.667-4.771,10.667-10.667s-4.771-10.667-10.667-10.667h-21.333
		c-5.896,0-10.667,4.771-10.667,10.667S239.438,64,245.333,64z"/>
	<circle style="fill:#303C42;" cx="373.333" cy="53.333" r="10.667"/>
</g>
<linearGradient id="SVGID_1_" gradientUnits="userSpaceOnUse" x1="-45.2743" y1="639.4139" x2="-24.1319" y2="629.5548" gradientTransform="matrix(21.3333 0 0 -21.3333 996.3334 13791.667)">
	<stop  offset="0" style="stop-color:#FFFFFF;stop-opacity:0.2"/>
	<stop  offset="1" style="stop-color:#FFFFFF;stop-opacity:0"/>
</linearGradient>
<path style="fill:url(#SVGID_1_);" d="M384,0H128c-23.531,0-42.667,19.135-42.667,42.667v426.667
	C85.333,492.865,104.469,512,128,512h256c23.531,0,42.667-19.135,42.667-42.667V42.667C426.667,19.135,407.531,0,384,0z"/>
<g>
</g>
<g>
</g>
<g>
</g>
<g>
</g>
<g>
</g>
<g>
</g>
<g>
</g>
<g>
</g>
<g>
</g>
<g>
</g>
<g>
</g>
<g>
</g>
<g>
</g>
<g>
</g>
<g>
</g>
</svg>
