<svg xmlns="http://www.w3.org/2000/svg" viewBox="0 0 512 512"><path d="M384 0H128c-23.531 0-42.667 19.135-42.667 42.667v426.667C85.333 492.865 104.469 512 128 512h256c23.531 0 42.667-19.135 42.667-42.667V42.667C426.667 19.135 407.531 0 384 0z" fill="#303c42"/><path d="M128 21.333h256c11.76 0 21.333 9.573 21.333 21.333v362.667H106.667V42.667c0-11.761 9.573-21.334 21.333-21.334z" fill="#5c6671"/><linearGradient id="a" gradientUnits="userSpaceOnUse" x1="-43.671" y1="640.484" x2="-25.576" y2="632.048" gradientTransform="matrix(21.3333 0 0 -21.3333 996.333 13791.667)"><stop offset="0" stop-color="#fff" stop-opacity=".2"/><stop offset="1" stop-color="#fff" stop-opacity="0"/></linearGradient><path d="M128 21.333h256c11.76 0 21.333 9.573 21.333 21.333v362.667H106.667V42.667c0-11.761 9.573-21.334 21.333-21.334z" fill="url(#a)"/><linearGradient id="b" gradientUnits="userSpaceOnUse" x1="-42.556" y1="644.046" x2="-26.851" y2="628.337" gradientTransform="matrix(21.3333 0 0 -21.3333 996.333 13791.667)"><stop offset="0" stop-color="#fff" stop-opacity=".2"/><stop offset="1" stop-color="#fff" stop-opacity="0"/></linearGradient><path d="M128 21.333h256c11.76 0 21.333 9.573 21.333 21.333v362.667H106.667V42.667c0-11.761 9.573-21.334 21.333-21.334z" fill="url(#b)"/><path d="M288 448h-64a10.66 10.66 0 0 0-10.667 10.667A10.66 10.66 0 0 0 224 469.334h64a10.66 10.66 0 0 0 10.667-10.667A10.66 10.66 0 0 0 288 448z" fill="#f2f2f2"/><g fill="#303c42"><path d="M195.833 296.198c2 1.656 4.417 2.469 6.823 2.469 3.063 0 6.094-1.302 8.208-3.833 3.771-4.531 3.156-11.26-1.365-15.031l-54.167-45.135 54.167-45.135c4.521-3.771 5.135-10.5 1.365-15.031-3.771-4.51-10.49-5.125-15.031-1.365l-64 53.333c-2.427 2.03-3.833 5.03-3.833 8.197s1.406 6.167 3.833 8.198l64 53.333zm105.302-1.365a10.656 10.656 0 0 0 8.208 3.833c2.406 0 4.823-.813 6.823-2.469l64-53.333c2.427-2.031 3.833-5.031 3.833-8.198s-1.406-6.167-3.833-8.198l-64-53.333c-4.552-3.76-11.25-3.146-15.031 1.365-3.771 4.531-3.156 11.26 1.365 15.031l54.167 45.135-54.167 45.136c-4.521 3.771-5.135 10.5-1.365 15.031zm-81.333 24.302c1.365.594 2.792.865 4.198.865 4.135 0 8.073-2.417 9.802-6.469l64-149.333c2.323-5.406-.188-11.677-5.604-14-5.365-2.333-11.677.177-14 5.604l-64 149.333c-2.323 5.407.187 11.678 5.604 14zM245.333 64h21.333c5.896 0 10.667-4.771 10.667-10.667s-4.771-10.667-10.667-10.667h-21.333c-5.896 0-10.667 4.771-10.667 10.667S239.438 64 245.333 64z"/><circle cx="373.333" cy="53.333" r="10.667"/></g><linearGradient id="c" gradientUnits="userSpaceOnUse" x1="-45.274" y1="639.414" x2="-24.132" y2="629.555" gradientTransform="matrix(21.3333 0 0 -21.3333 996.333 13791.667)"><stop offset="0" stop-color="#fff" stop-opacity=".2"/><stop offset="1" stop-color="#fff" stop-opacity="0"/></linearGradient><path d="M384 0H128c-23.531 0-42.667 19.135-42.667 42.667v426.667C85.333 492.865 104.469 512 128 512h256c23.531 0 42.667-19.135 42.667-42.667V42.667C426.667 19.135 407.531 0 384 0z" fill="url(#c)"/></svg>